<svg xmlns="http://www.w3.org/2000/svg" height="937pt" version="1.1" viewBox="0 -32 937.5 937" width="937pt">
<g id="surface1">
<path d="M 156.25 387.75 L 156.25 531.5 C 156.25 540.132812 163.242188 547.125 171.875 547.125 L 765.625 547.125 C 774.257812 547.125 781.25 540.132812 781.25 531.5 L 781.25 94 C 781.25 85.371094 774.257812 78.375 765.625 78.375 L 588.261719 78.375 C 591.828125 71.074219 593.703125 63.0625 593.75 54.9375 C 593.75 24.734375 569.265625 0.25 539.0625 0.25 L 117.828125 0.25 C 99.945312 0.246094 82.222656 3.664062 65.625 10.3125 L 9.8125 32.605469 L 21.4375 61.648438 L 77.1875 39.3125 C 90.097656 34.132812 103.898438 31.492188 117.8125 31.5 L 539.0625 31.5 C 552.007812 31.5 562.5 41.992188 562.5 54.9375 C 562.5 67.882812 552.007812 78.375 539.0625 78.375 L 0 78.375 L 0 109.625 L 373.4375 109.625 C 365.96875 145.976562 333.984375 172.089844 296.875 172.125 L 171.875 172.125 C 163.242188 172.125 156.25 179.121094 156.25 187.75 C 156.179688 248.132812 107.25 297.058594 46.875 297.125 L 0 297.125 L 0 328.375 L 46.875 328.375 C 89.40625 328.367188 129.632812 309.058594 156.25 275.890625 L 156.25 356.238281 C 141.601562 358.398438 126.828125 359.53125 112.011719 359.625 L 0 359.625 L 0 390.875 L 112.011719 390.875 C 126.816406 390.78125 141.59375 389.742188 156.25 387.75 Z M 187.5 422.125 L 750 422.125 L 750 453.375 L 187.5 453.375 Z M 187.5 515.875 L 187.5 484.625 L 750 484.625 L 750 515.875 Z M 750 109.625 L 750 390.875 L 187.5 390.875 L 187.5 203.375 L 218.75 203.375 L 218.75 312.75 C 218.75 321.382812 225.742188 328.375 234.375 328.375 C 243.007812 328.375 250 335.371094 250 344 C 250 352.632812 256.992188 359.625 265.625 359.625 L 671.875 359.625 C 680.507812 359.625 687.5 352.632812 687.5 344 C 687.5 335.371094 694.492188 328.375 703.125 328.375 C 711.757812 328.375 718.75 321.382812 718.75 312.75 L 718.75 187.75 C 718.75 179.121094 711.757812 172.125 703.125 172.125 C 694.492188 172.125 687.5 165.132812 687.5 156.5 C 687.5 147.871094 680.507812 140.875 671.875 140.875 L 395.546875 140.875 C 400.265625 130.992188 403.441406 120.460938 405 109.625 Z M 406.25 250.25 C 406.25 207.179688 434.277344 172.125 468.75 172.125 C 503.222656 172.125 531.25 207.179688 531.25 250.25 C 531.25 293.332031 503.222656 328.375 468.75 328.375 C 434.277344 328.375 406.25 293.332031 406.25 250.25 Z M 534.234375 172.125 L 658.925781 172.125 C 663.671875 185.457031 674.171875 195.953125 687.5 200.710938 L 687.5 299.800781 C 674.171875 304.546875 663.671875 315.046875 658.925781 328.375 L 534.234375 328.375 C 571.921875 283.113281 571.921875 217.390625 534.234375 172.125 Z M 373.296875 172.125 L 403.28125 172.125 C 365.59375 217.390625 365.59375 283.113281 403.28125 328.375 L 278.59375 328.375 C 273.832031 315.039062 263.335938 304.546875 250 299.800781 L 250 203.375 L 296.875 203.375 C 325.449219 203.375 352.898438 192.164062 373.285156 172.125 Z M 373.296875 172.125 " style=" stroke:none;fill-rule:nonzero;fill:rgb(0%,0%,0%);fill-opacity:1;" />
<path d="M 609.375 234.625 L 640.625 234.625 L 640.625 265.875 L 609.375 265.875 Z M 609.375 234.625 " style=" stroke:none;fill-rule:nonzero;fill:rgb(0%,0%,0%);fill-opacity:1;" />
<path d="M 296.875 234.625 L 328.125 234.625 L 328.125 265.875 L 296.875 265.875 Z M 296.875 234.625 " style=" stroke:none;fill-rule:nonzero;fill:rgb(0%,0%,0%);fill-opacity:1;" />
<path d="M 921.875 623.6875 L 722.609375 623.6875 C 650.683594 583.921875 563.378906 583.824219 491.359375 623.417969 L 375 623.6875 C 355.527344 623.6875 337.167969 632.75 325.347656 648.21875 C 313.515625 663.679688 309.570312 683.777344 314.671875 702.570312 L 172.578125 637.488281 C 151.929688 628.027344 127.882812 629.734375 108.78125 642.003906 C 89.667969 654.273438 78.121094 675.425781 78.125 698.144531 L 78.125 701.542969 C 78.039062 726.832031 92.335938 749.960938 114.984375 761.191406 L 297.171875 852.277344 C 325.390625 866.339844 356.492188 873.664062 388.011719 873.6875 L 921.875 873.6875 C 930.507812 873.6875 937.5 866.695312 937.5 858.0625 L 937.5 639.3125 C 937.5 630.683594 930.507812 623.6875 921.875 623.6875 Z M 311.15625 824.335938 L 128.964844 733.238281 C 116.933594 727.273438 109.328125 714.976562 109.375 701.542969 L 109.375 698.144531 C 109.34375 686.066406 115.472656 674.800781 125.632812 668.269531 C 135.796875 661.738281 148.585938 660.835938 159.5625 665.875 L 337.230469 747.265625 C 339.28125 748.203125 341.5 748.6875 343.75 748.6875 L 500 748.6875 C 508.632812 748.6875 515.625 741.695312 515.625 733.0625 C 515.625 724.433594 508.632812 717.4375 500 717.4375 L 375 717.4375 C 357.738281 717.4375 343.75 703.445312 343.75 686.1875 C 343.75 668.925781 357.738281 654.9375 375 654.9375 L 494.800781 654.9375 C 497.40625 654.933594 499.96875 654.277344 502.265625 653.046875 L 506.257812 650.859375 C 567.386719 617.242188 641.269531 616.425781 703.125 648.6875 L 703.125 842.4375 L 388.011719 842.4375 C 361.335938 842.417969 335.03125 836.21875 311.15625 824.335938 Z M 906.25 842.4375 L 734.375 842.4375 L 734.375 654.9375 L 906.25 654.9375 Z M 906.25 842.4375 " style=" stroke:none;fill-rule:nonzero;fill:rgb(0%,0%,0%);fill-opacity:1;" />
<path d="M 765.625 779.96875 L 796.875 779.96875 L 796.875 811.21875 L 765.625 811.21875 Z M 765.625 779.96875 " style=" stroke:none;fill-rule:nonzero;fill:rgb(0%,0%,0%);fill-opacity:1;" />
</g>
</svg>